<svg width="51" height="58" viewBox="0 0 51 58" fill="none" xmlns="http://www.w3.org/2000/svg">
<g filter="url(#filter0_d_108_55)">
<path d="M22.6313 0.499756C23.3043 0.499755 24.1281 0.842859 24.3423 1.69312C24.9798 4.22486 25.8607 7.26736 26.9741 10.0662C28.0929 12.8785 29.4247 15.3879 30.9399 16.9031C32.4925 18.4556 34.6844 19.8027 36.9995 20.9246C39.3089 22.0436 41.7114 22.9247 43.6616 23.5564C44.4379 23.808 44.7622 24.5662 44.7622 25.2117C44.7622 25.8572 44.4379 26.6153 43.6616 26.8669C41.7114 27.4986 39.3089 28.3798 36.9995 29.4988C34.6844 30.6206 32.4925 31.9677 30.9399 33.5203C29.4388 35.0214 28.1113 37.6917 26.9927 40.7546C25.8808 43.7992 24.9992 47.1612 24.3599 49.9822C24.1612 50.8588 23.3134 51.2078 22.6313 51.2078C21.9493 51.2078 21.1015 50.8588 20.9028 49.9822C20.2635 47.1612 19.3819 43.7992 18.27 40.7546C17.1514 37.6917 15.8239 35.0214 14.3228 33.5203C12.7702 31.9677 10.5783 30.6206 8.26318 29.4988C5.95381 28.3798 3.55131 27.4986 1.60107 26.8669C0.824797 26.6153 0.500488 25.8572 0.500488 25.2117C0.500488 24.5662 0.824797 23.808 1.60107 23.5564C3.55131 22.9247 5.95381 22.0436 8.26318 20.9246C10.5783 19.8027 12.7702 18.4556 14.3228 16.9031C15.838 15.3879 17.1698 12.8785 18.2886 10.0662C19.4019 7.26737 20.2829 4.22486 20.9204 1.69312C21.1346 0.842861 21.9584 0.499757 22.6313 0.499756Z" fill="white" stroke="black"/>
</g>
<defs>
<filter id="filter0_d_108_55" x="0" y="0" width="50.7627" height="57.2078" filterUnits="userSpaceOnUse" color-interpolation-filters="sRGB">
<feFlood flood-opacity="0" result="BackgroundImageFix"/>
<feColorMatrix in="SourceAlpha" type="matrix" values="0 0 0 0 0 0 0 0 0 0 0 0 0 0 0 0 0 0 127 0" result="hardAlpha"/>
<feOffset dx="5.5" dy="5.5"/>
<feComposite in2="hardAlpha" operator="out"/>
<feColorMatrix type="matrix" values="0 0 0 0 0 0 0 0 0 0 0 0 0 0 0 0 0 0 1 0"/>
<feBlend mode="normal" in2="BackgroundImageFix" result="effect1_dropShadow_108_55"/>
<feBlend mode="normal" in="SourceGraphic" in2="effect1_dropShadow_108_55" result="shape"/>
</filter>
</defs>
</svg>