<svg width="426" height="391" viewBox="0 0 426 391" fill="none" xmlns="http://www.w3.org/2000/svg">
<g filter="url(#filter0_d_108_56)">
<path d="M221.007 1.84703C221.238 0.766999 223.004 0.698198 223.293 1.76428C227.295 16.5179 240.64 58.7405 264.088 66.6711C286.813 74.3571 319.625 53.914 332.013 45.2953C332.945 44.6469 334.481 46.0314 333.968 47.0441C328.169 58.4866 317.34 86.5997 332.188 115.671C349.573 149.709 393.854 148.396 402.517 147.796C402.997 147.762 403.266 148.371 402.922 148.707C397.844 153.665 376.415 175.505 373 194.171C369.739 212 384.69 240.966 389.53 249.732C390.219 250.979 389.472 252.569 388.074 252.84C379.352 254.53 353.373 260.749 341 276.671C327.91 293.515 330.956 328.102 331.944 336.638C332.003 337.153 331.3 337.454 330.968 337.056C325.179 330.11 299.374 302.019 266 309.171C232.599 316.329 218.899 354.942 216.072 364.183C215.919 364.686 215.109 364.672 214.961 364.167C212.374 355.361 199.649 320.052 159.5 309.171C118.508 298.062 80.296 328.987 72.4611 335.853C72.0694 336.196 71.4263 335.773 71.5667 335.271C73.6623 327.79 80.3802 299.295 71 269.171C61.6757 239.227 15.8735 226.17 2.60685 222.978C1.05614 222.605 0.471177 220.646 1.55644 219.477C8.67414 211.812 28.3402 189.448 30.5 174.171C32.68 158.752 25.4811 134.073 22.8919 125.899C22.4701 124.567 23.4699 123.193 24.8665 123.172C35.3964 123.013 72.1786 121.007 88.5729 101.171C105.856 80.2592 110.84 48.912 111.676 42.7456C111.734 42.3201 112.255 42.1417 112.555 42.4491C117.763 47.7897 149.477 78.4723 179.912 66.6711C207.068 56.1417 217.928 16.2003 221.007 1.84703Z" fill="white"/>
<path d="M221.007 1.84703C221.238 0.766999 223.004 0.698198 223.293 1.76428C227.295 16.5179 240.64 58.7405 264.088 66.6711C286.813 74.3571 319.625 53.914 332.013 45.2953C332.945 44.6469 334.481 46.0314 333.968 47.0441C328.169 58.4866 317.34 86.5997 332.188 115.671C349.573 149.709 393.854 148.396 402.517 147.796C402.997 147.762 403.266 148.371 402.922 148.707C397.844 153.665 376.415 175.505 373 194.171C369.739 212 384.69 240.966 389.53 249.732C390.219 250.979 389.472 252.569 388.074 252.84C379.352 254.53 353.373 260.749 341 276.671C327.91 293.515 330.956 328.102 331.944 336.638C332.003 337.153 331.3 337.454 330.968 337.056C325.179 330.11 299.374 302.019 266 309.171C232.599 316.329 218.899 354.942 216.072 364.183C215.919 364.686 215.109 364.672 214.961 364.167C212.374 355.361 199.649 320.052 159.5 309.171C118.508 298.062 80.296 328.987 72.4611 335.853C72.0694 336.196 71.4263 335.773 71.5667 335.271C73.6623 327.79 80.3802 299.295 71 269.171C61.6757 239.227 15.8735 226.17 2.60685 222.978C1.05614 222.605 0.471177 220.646 1.55644 219.477C8.67414 211.812 28.3402 189.448 30.5 174.171C32.68 158.752 25.4811 134.073 22.8919 125.899C22.4701 124.567 23.4699 123.193 24.8665 123.172C35.3964 123.013 72.1786 121.007 88.5729 101.171C105.856 80.2592 110.84 48.912 111.676 42.7456C111.734 42.3201 112.255 42.1417 112.555 42.4491C117.763 47.7897 149.477 78.4723 179.912 66.6711C207.068 56.1417 217.928 16.2003 221.007 1.84703Z" stroke="black" stroke-width="2"/>
</g>
<defs>
<filter id="filter0_d_108_56" x="0" y="0" width="425.078" height="390.553" filterUnits="userSpaceOnUse" color-interpolation-filters="sRGB">
<feFlood flood-opacity="0" result="BackgroundImageFix"/>
<feColorMatrix in="SourceAlpha" type="matrix" values="0 0 0 0 0 0 0 0 0 0 0 0 0 0 0 0 0 0 127 0" result="hardAlpha"/>
<feOffset dx="21" dy="25"/>
<feComposite in2="hardAlpha" operator="out"/>
<feColorMatrix type="matrix" values="0 0 0 0 0 0 0 0 0 0 0 0 0 0 0 0 0 0 1 0"/>
<feBlend mode="normal" in2="BackgroundImageFix" result="effect1_dropShadow_108_56"/>
<feBlend mode="normal" in="SourceGraphic" in2="effect1_dropShadow_108_56" result="shape"/>
</filter>
</defs>
</svg>
